<svg width="136" height="155" viewBox="0 0 136 155" fill="none" xmlns="http://www.w3.org/2000/svg">
<g style="mix-blend-mode:hard-light">
<circle cx="62.5" cy="62.5" r="62.5" fill="url(#paint0_linear_2_113)"/>
<circle cx="62.5" cy="62.5" r="62.5" fill="#00F2FF" fill-opacity="0.2"/>
</g>
<path d="M125 62.5C125 45.924 118.415 30.0269 106.694 18.3058C94.9732 6.5848 79.076 1.25146e-06 62.5 0C45.924 -1.25146e-06 30.0269 6.5848 18.3058 18.3058C6.58481 30.0268 2.50291e-06 45.924 0 62.5H12.5C12.5 49.2392 17.7678 36.5215 27.1447 27.1447C36.5215 17.7678 49.2392 12.5 62.5 12.5C75.7608 12.5 88.4785 17.7678 97.8553 27.1447C107.232 36.5215 112.5 49.2392 112.5 62.5H125Z" fill="#0BC6FF"/>
<path d="M-5.46392e-06 62.5C-4.0148e-06 79.076 6.5848 94.9732 18.3058 106.694C30.0268 118.415 45.924 125 62.5 125C79.076 125 94.9731 118.415 106.694 106.694C118.415 94.9732 125 79.076 125 62.5L112.5 62.5C112.5 75.7608 107.232 88.4785 97.8553 97.8553C88.4785 107.232 75.7608 112.5 62.5 112.5C49.2392 112.5 36.5215 107.232 27.1447 97.8553C17.7678 88.4785 12.5 75.7608 12.5 62.5L-5.46392e-06 62.5Z" fill="#002FFF"/>
<path d="M12.5 62.5C54 48 32.5 26.5 64.5 57C104.5 107 108.333 61.1667 112.5 62.5" stroke="black"/>
<path d="M13.475 134.2H4.875V138.85H12.85V141.55H4.875V149H2.05V131.5H13.475V134.2ZM17.2102 129.05C17.7435 129.05 18.1852 129.217 18.5352 129.55C18.8852 129.867 19.0602 130.275 19.0602 130.775C19.0602 131.292 18.8852 131.717 18.5352 132.05C18.1852 132.383 17.7435 132.55 17.2102 132.55C16.6935 132.55 16.2602 132.383 15.9102 132.05C15.5602 131.717 15.3852 131.292 15.3852 130.775C15.3852 130.275 15.5602 129.867 15.9102 129.55C16.2602 129.217 16.6935 129.05 17.2102 129.05ZM15.8102 149V135.25H18.6352V149H15.8102ZM29.3387 134.95C30.8887 134.95 32.097 135.425 32.9637 136.375C33.847 137.325 34.2887 138.642 34.2887 140.325V149H31.4637V140.9C31.4637 138.733 30.4637 137.65 28.4637 137.65C27.2637 137.65 26.3387 138.025 25.6887 138.775C25.0553 139.508 24.7387 140.542 24.7387 141.875V149H21.9137V135.25H24.7387V137.525C25.7887 135.808 27.322 134.95 29.3387 134.95ZM52.5355 131.5C54.4355 131.5 55.9355 132.025 57.0355 133.075C58.1355 134.125 58.6855 135.517 58.6855 137.25C58.6855 138.983 58.1272 140.392 57.0105 141.475C55.9105 142.542 54.4189 143.075 52.5355 143.075H48.1855V149H45.3605V131.5H52.5355ZM52.4355 140.375C53.5355 140.375 54.3689 140.092 54.9355 139.525C55.5189 138.958 55.8105 138.208 55.8105 137.275C55.8105 136.342 55.5272 135.6 54.9605 135.05C54.3939 134.483 53.5522 134.2 52.4355 134.2H48.1855V140.375H52.4355ZM67.6756 134.95C69.6756 134.95 71.3589 135.633 72.7256 137C74.1089 138.367 74.8006 140.075 74.8006 142.125C74.8006 144.175 74.1173 145.883 72.7506 147.25C71.3839 148.617 69.6923 149.3 67.6756 149.3C65.6756 149.3 63.9839 148.617 62.6006 147.25C61.2339 145.867 60.5506 144.158 60.5506 142.125C60.5506 140.075 61.2423 138.367 62.6256 137C64.0089 135.633 65.6923 134.95 67.6756 134.95ZM70.7006 138.925C69.8839 138.075 68.8756 137.65 67.6756 137.65C66.4756 137.65 65.4589 138.075 64.6256 138.925C63.8089 139.758 63.4006 140.825 63.4006 142.125C63.4006 143.442 63.8089 144.517 64.6256 145.35C65.4423 146.183 66.4589 146.6 67.6756 146.6C68.8923 146.6 69.9089 146.183 70.7256 145.35C71.5423 144.517 71.9506 143.442 71.9506 142.125C71.9506 140.825 71.5339 139.758 70.7006 138.925ZM84.3016 149.3C82.2682 149.3 80.5682 148.617 79.2016 147.25C77.8516 145.883 77.1766 144.175 77.1766 142.125C77.1766 140.075 77.8516 138.367 79.2016 137C80.5682 135.633 82.2766 134.95 84.3266 134.95C85.9932 134.95 87.4599 135.433 88.7266 136.4C89.9932 137.35 90.7766 138.633 91.0766 140.25H88.1516C87.9016 139.4 87.4266 138.742 86.7266 138.275C86.0266 137.808 85.2266 137.575 84.3266 137.575C83.0599 137.575 82.0266 138 81.2266 138.85C80.4266 139.7 80.0266 140.792 80.0266 142.125C80.0266 143.458 80.4266 144.55 81.2266 145.4C82.0266 146.25 83.0516 146.675 84.3016 146.675C85.2182 146.675 86.0182 146.433 86.7016 145.95C87.4016 145.467 87.8849 144.808 88.1516 143.975H91.0766C90.7599 145.625 89.9682 146.925 88.7016 147.875C87.4349 148.825 85.9682 149.3 84.3016 149.3ZM106.742 149H103.092L96.6166 142.65V149H93.7916V129.75H96.6166V141.2L102.567 135.25H106.192L99.4666 141.775L106.742 149ZM114.184 134.95C116.367 134.95 118.1 135.708 119.384 137.225C120.684 138.725 121.267 140.617 121.134 142.9H109.959C110.075 144.133 110.525 145.1 111.309 145.8C112.092 146.483 113.075 146.825 114.259 146.825C115.092 146.825 115.834 146.65 116.484 146.3C117.134 145.95 117.617 145.442 117.934 144.775H120.859C120.342 146.258 119.492 147.383 118.309 148.15C117.125 148.917 115.767 149.3 114.234 149.3C112.15 149.3 110.434 148.633 109.084 147.3C107.75 145.95 107.084 144.233 107.084 142.15C107.084 140.067 107.75 138.35 109.084 137C110.417 135.633 112.117 134.95 114.184 134.95ZM114.184 137.4C113.134 137.4 112.25 137.7 111.534 138.3C110.834 138.883 110.359 139.65 110.109 140.6H118.109C117.892 139.633 117.434 138.858 116.734 138.275C116.05 137.692 115.2 137.4 114.184 137.4ZM133.841 146L134.341 148.3C133.225 148.967 131.916 149.3 130.416 149.3C128.933 149.3 127.725 148.825 126.791 147.875C125.858 146.925 125.391 145.542 125.391 143.725V137.9H122.841V135.25H125.391V132.125L128.216 131.5V135.25H133.866V137.9H128.216V143.575C128.216 145.642 129.116 146.675 130.916 146.675C131.583 146.675 132.558 146.45 133.841 146Z" fill="black"/>
<defs>
<linearGradient id="paint0_linear_2_113" x1="62.5" y1="0" x2="62.5" y2="125" gradientUnits="userSpaceOnUse">
<stop stop-color="#0BC6FF"/>
<stop offset="1" stop-color="#002FFF"/>
</linearGradient>
</defs>
</svg>
